<?xml version="1.0" standalone="no"?>
<!DOCTYPE svg PUBLIC "-//W3C//DTD SVG 1.1//EN" "http://www.w3.org/Graphics/SVG/1.1/DTD/svg11.dtd" >
<svg xmlns="http://www.w3.org/2000/svg">
<metadata>Generated by IcoMoon</metadata>
<defs>
<font id="icomoon" horiz-adv-x="1024">
<font-face units-per-em="1024" ascent="960" descent="-64" />
<missing-glyph horiz-adv-x="1024" />
<glyph unicode="&#x20;" horiz-adv-x="512" d="" />
<glyph unicode="&#xe900;" glyph-name="edit-2" d="M652.497 862.17c16.661 16.662 43.678 16.662 60.339 0l213.333-213.333c16.661-16.663 16.661-43.677 0-60.34l-554.666-554.666c-8.002-8-18.854-12.497-30.17-12.497h-213.333c-23.564 0-42.667 19.102-42.667 42.667v213.333c0 11.315 4.495 22.17 12.497 30.17l554.667 554.667zM170.667 259.661v-152.994h152.994l512 512-152.994 152.994-512-512z" />
<glyph unicode="&#xe901;" glyph-name="send" d="M968.836 904.835c16.661-16.663 16.661-43.677 0-60.34l-469.333-469.332c-16.661-16.666-43.678-16.666-60.339 0-16.663 16.661-16.663 43.678 0 60.339l469.333 469.332c16.661 16.662 43.678 16.662 60.339 0zM968.836 904.835c11.588-11.59 15.518-28.794 10.103-44.265l-298.667-853.334c-5.781-16.512-21.056-27.823-38.532-28.535-17.481-0.713-33.626 9.318-40.73 25.301l-164.002 369.007-369.004 164c-15.986 7.105-26.016 23.249-25.303 40.729s12.024 32.753 28.536 38.532l853.335 298.667c15.467 5.415 32.674 1.489 44.262-10.101zM201.006 571.28l285.654-126.958c9.655-4.292 17.374-12.011 21.662-21.662l126.959-285.658 233.839 668.117-668.114-233.84z" />
<glyph unicode="&#xe902;" glyph-name="chevron-down" d="M798.182 606.173c16.661-16.663 16.661-43.677 0-60.34l-256.004-255.998c-16.661-16.666-43.674-16.666-60.339 0l-255.998 255.998c-16.663 16.663-16.663 43.677 0 60.34s43.677 16.662 60.34 0l225.828-225.829 225.83 225.829c16.666 16.662 43.678 16.662 60.343 0z" />
<glyph unicode="&#xe903;" glyph-name="chevron-left" d="M670.17 734.178c16.661-16.662 16.661-43.677 0-60.34l-225.83-225.83 225.83-225.83c16.661-16.661 16.661-43.678 0-60.339-16.661-16.666-43.678-16.666-60.339 0l-256 256c-16.662 16.661-16.662 43.678 0 60.339l256 256c16.661 16.662 43.678 16.662 60.339 0z" />
<glyph unicode="&#xe904;" glyph-name="chevron-right" d="M353.83 734.178c16.663 16.662 43.677 16.662 60.34 0l256-256c16.661-16.661 16.661-43.678 0-60.339l-256-256c-16.663-16.666-43.677-16.666-60.34 0-16.662 16.661-16.662 43.678 0 60.339l225.831 225.83-225.831 225.83c-16.662 16.662-16.662 43.677 0 60.34z" />
<glyph unicode="&#xe905;" glyph-name="chevron-up" d="M798.17 289.822c-16.661-16.661-43.678-16.661-60.339 0l-225.83 225.83-225.83-225.83c-16.663-16.661-43.677-16.661-60.34 0s-16.662 43.678 0 60.339l256 256.001c16.661 16.663 43.678 16.663 60.339 0l256-256.001c16.661-16.661 16.661-43.678 0-60.339z" />
<glyph unicode="&#xe906;" glyph-name="eye" d="M91.338 448c4.663 8.060 10.845 18.33 18.503 30.187 19.67 30.455 48.8 70.959 86.619 111.299 76.415 81.51 183.252 157.181 315.54 157.181s239.125-75.672 315.541-157.181c37.815-40.34 66.948-80.843 86.618-111.299 7.659-11.857 13.841-22.127 18.505-30.187-4.663-8.060-10.846-18.33-18.505-30.187-19.669-30.455-48.802-70.959-86.618-111.3-76.416-81.506-183.253-157.18-315.541-157.18s-239.124 75.674-315.54 157.18c-37.818 40.341-66.949 80.845-86.619 111.3-7.658 11.857-13.84 22.127-18.503 30.187zM981.333 448c38.161 19.081 38.157 19.098 38.148 19.11l-0.068 0.137-0.149 0.294-0.482 0.947c-0.41 0.789-0.986 1.899-1.728 3.302-1.481 2.803-3.635 6.793-6.451 11.793-5.623 10.001-13.905 24.085-24.759 40.896-21.666 33.544-53.867 78.374-96.051 123.368-83.584 89.157-211.413 184.152-377.792 184.152s-294.209-94.995-377.794-184.152c-42.182-44.994-74.385-89.824-96.048-123.368-10.858-16.811-19.138-30.895-24.762-40.896-2.814-5.001-4.968-8.99-6.452-11.793-0.742-1.404-1.317-2.513-1.724-3.302l-0.484-0.947-0.147-0.294-0.050-0.098c-0.008-0.017-0.034-0.068 38.128-19.149l-38.162 19.081c-6.006-12.011-6.006-26.15 0-38.161l38.162 19.081c-38.162-19.081-38.17-19.063-38.162-19.081l0.084-0.166 0.147-0.294 0.484-0.947c0.407-0.789 0.982-1.899 1.724-3.302 1.484-2.803 3.638-6.793 6.452-11.793 5.624-10.001 13.904-24.085 24.762-40.896 21.663-33.545 53.866-78.374 96.048-123.366 83.585-89.161 211.415-184.154 377.794-184.154s294.208 94.993 377.792 184.154c42.185 44.992 74.385 89.822 96.051 123.366 10.854 16.811 19.136 30.895 24.759 40.896 2.816 5.001 4.971 8.99 6.451 11.793 0.742 1.404 1.318 2.513 1.728 3.302l0.482 0.947 0.149 0.294 0.047 0.098c0.009 0.017 0.034 0.068-38.127 19.149zM981.333 448l38.148 19.11c6.003-12.011 6.020-26.18 0.013-38.191l-38.161 19.081zM511.991 533.321c-47.13 0-85.335-38.204-85.335-85.333s38.205-85.333 85.335-85.333c47.125 0 85.333 38.204 85.333 85.333s-38.208 85.333-85.333 85.333zM341.323 447.987c0 94.256 76.41 170.666 170.668 170.666 94.255 0 170.667-76.41 170.667-170.666s-76.412-170.667-170.667-170.667c-94.258 0-170.668 76.412-170.668 170.667z" />
<glyph unicode="&#xe907;" glyph-name="eye-off" d="M512 64c-320 0-499.2 349.867-507.733 366.933-4.267 12.8-4.267 25.6 0 38.4 55.467 102.4 132.267 192 230.4 264.533 17.067 17.067 42.667 12.8 59.733-8.533 12.8-17.067 12.8-46.933-8.533-59.733-81.067-59.733-145.067-132.267-196.267-217.6 38.4-68.267 192-298.667 422.4-298.667 81.067 0 162.133 29.867 226.133 81.067 17.067 12.8 46.933 8.533 59.733-8.533s8.533-46.933-8.533-59.733c-76.8-64-174.933-98.133-277.333-98.133zM887.467 268.8c-8.533 0-21.333 4.267-25.6 8.533-17.067 17.067-21.333 42.667-4.267 59.733 29.867 34.133 55.467 68.267 76.8 106.667-38.4 68.267-192 298.667-422.4 298.667-25.6 0-55.467-4.267-81.067-8.533-21.333 0-42.667 12.8-51.2 34.133s8.533 46.933 29.867 51.2c34.133 8.533 68.267 12.8 102.4 12.8 320 0 499.2-349.867 507.733-366.933 4.267-12.8 4.267-25.6 0-38.4-25.6-51.2-59.733-98.133-98.133-145.067-8.533-8.533-21.333-12.8-34.133-12.8zM507.733 273.067c-42.667 0-85.333 17.067-115.2 46.933-34.133 29.867-51.2 72.533-55.467 119.467 0 46.933 12.8 89.6 46.933 123.733 4.267 4.267 4.267 4.267 8.533 8.533 17.067 17.067 42.667 17.067 59.733 0s17.067-42.667 0-59.733l-4.267-4.267c-17.067-17.067-25.6-38.4-21.333-59.733 0-21.333 8.533-42.667 25.6-59.733 34.133-34.133 89.6-29.867 119.467 4.267 17.067 17.067 42.667 17.067 59.733 0s17.067-42.667 0-59.733c-29.867-38.4-76.8-59.733-123.733-59.733zM981.333-64c-12.8 0-21.333 4.267-29.867 12.8l-938.667 938.667c-17.067 17.067-17.067 42.667 0 59.733s42.667 17.067 59.733 0l938.667-938.667c17.067-17.067 17.067-42.667 0-59.733-8.533-8.533-17.067-12.8-29.867-12.8z" />
<glyph unicode="&#xe908;" glyph-name="bell" d="M512 832c67.895 0 133.009-26.971 181.018-74.981 48.013-48.009 74.982-113.124 74.982-181.019v-213.333c0-30.217 8.013-59.61 22.865-85.333h-557.73c14.851 25.724 22.865 55.117 22.865 85.333v213.333c0 67.895 26.971 133.010 74.981 181.019s113.124 74.981 181.019 74.981zM938.667 277.333c-22.63 0-44.335 8.99-60.339 24.994s-24.994 37.709-24.994 60.339v213.333c0 90.527-35.964 177.347-99.972 241.359-64.013 64.013-150.835 99.974-241.361 99.974-90.527 0-177.347-35.962-241.359-99.974s-99.974-150.832-99.974-241.359v-213.333c0-22.63-8.99-44.335-24.994-60.339s-37.708-24.994-60.34-24.994c-23.564 0-42.667-19.102-42.667-42.667s19.103-42.667 42.667-42.667h853.333v85.333zM416.778 100.907c-20.383-11.823-27.322-37.931-15.498-58.317 11.252-19.396 27.401-35.494 46.835-46.69 19.43-11.191 41.459-17.084 63.885-17.084s44.454 5.892 63.885 17.084c19.435 11.196 35.584 27.294 46.835 46.69 11.823 20.386 4.885 46.494-15.497 58.317-20.386 11.823-46.494 4.885-58.317-15.497-3.75-6.468-9.135-11.836-15.612-15.565s-13.82-5.696-21.295-5.696c-7.475 0-14.818 1.967-21.295 5.696s-11.861 9.097-15.612 15.565c-11.823 20.382-37.931 27.319-58.316 15.497z" />
<glyph unicode="&#xe909;" glyph-name="check" d="M883.503 734.17c16.661-16.663 16.661-43.677 0-60.34l-469.333-469.333c-16.663-16.661-43.677-16.661-60.34 0l-213.333 213.333c-16.662 16.661-16.662 43.678 0 60.339s43.677 16.661 60.34 0l183.163-183.164 439.164 439.164c16.661 16.662 43.678 16.662 60.339 0z" />
<glyph unicode="&#xe90a;" glyph-name="check-circle" d="M668.288 799.001c-75.639 33.702-160.145 42.052-240.913 23.802-80.772-18.249-153.48-62.118-207.281-125.066s-85.813-141.6-91.261-224.227c-5.449-82.628 15.959-164.8 61.029-234.27 45.070-69.466 111.387-122.505 189.062-151.198 77.674-28.698 162.546-31.518 241.953-8.038 79.411 23.479 149.103 71.996 198.682 138.317 49.583 66.325 76.395 146.897 76.442 229.705v39.228c0 23.565 19.102 42.667 42.667 42.667s42.667-19.102 42.667-42.667v-39.253c-0.060-101.21-32.832-199.71-93.427-280.772-60.599-81.058-145.779-140.361-242.833-169.054-97.054-28.698-200.785-25.25-295.722 9.822s-175.991 99.895-231.077 184.802c-55.086 84.902-81.25 185.34-74.591 286.327s45.785 197.119 111.542 274.055c65.757 76.936 154.622 130.554 253.342 152.858 98.722 22.304 202.005 12.1 294.451-29.092 21.525-9.591 31.198-34.814 21.606-56.338-9.587-21.524-34.812-31.198-56.337-21.608zM968.823 819.518c16.67-16.654 16.683-43.669 0.030-60.34l-426.667-427.095c-8-8.004-18.854-12.506-30.178-12.51-11.319-0.004-22.174 4.493-30.178 12.497l-128 128c-16.662 16.661-16.662 43.678 0 60.339 16.663 16.663 43.677 16.663 60.34 0l97.813-97.813 396.497 396.892c16.657 16.671 43.669 16.684 60.343 0.030z" />
<glyph unicode="&#xe90b;" glyph-name="filter" d="M46.63 849.958c6.991 15.068 22.092 24.709 38.703 24.709h853.333c16.61 0 31.714-9.641 38.703-24.709 6.993-15.069 4.604-32.825-6.123-45.509l-331.247-391.696v-348.753c0-14.788-7.654-28.518-20.237-36.297-12.578-7.774-28.284-8.478-41.51-1.865l-170.667 85.333c-14.455 7.228-23.586 21.999-23.586 38.161v263.42l-331.246 391.696c-10.726 12.684-13.116 30.44-6.124 45.509zM177.294 789.333l281.953-333.41c6.511-7.701 10.086-17.463 10.086-27.55v-252.672l85.333-42.667v295.339c0 10.086 3.575 19.849 10.086 27.55l281.954 333.41h-669.414z" />
<glyph unicode="&#xe90c;" glyph-name="grid" d="M85.333 832c0 23.564 19.103 42.667 42.667 42.667h298.667c23.565 0 42.667-19.103 42.667-42.667v-426.667c0-23.565-19.102-42.667-42.667-42.667h-298.667c-23.564 0-42.667 19.102-42.667 42.667v426.667zM170.667 789.333v-341.333h213.333v341.333h-213.333zM554.667 832c0 23.564 19.102 42.667 42.667 42.667h298.667c23.565 0 42.667-19.103 42.667-42.667v-213.333c0-23.564-19.102-42.667-42.667-42.667h-298.667c-23.565 0-42.667 19.103-42.667 42.667v213.333zM640 789.333v-128h213.333v128h-213.333zM554.667 448c0 23.565 19.102 42.667 42.667 42.667h298.667c23.565 0 42.667-19.102 42.667-42.667v-384c0-23.565-19.102-42.667-42.667-42.667h-298.667c-23.565 0-42.667 19.102-42.667 42.667v384zM640 405.333v-298.667h213.333v298.667h-213.333zM85.333 234.667c0 23.565 19.103 42.667 42.667 42.667h298.667c23.565 0 42.667-19.102 42.667-42.667v-170.667c0-23.565-19.102-42.667-42.667-42.667h-298.667c-23.564 0-42.667 19.102-42.667 42.667v170.667zM170.667 192v-85.333h213.333v85.333h-213.333z" />
<glyph unicode="&#xe90d;" glyph-name="grid-1" d="M85.333 832c0 23.564 19.103 42.667 42.667 42.667h298.667c23.565 0 42.667-19.103 42.667-42.667v-298.667c0-23.565-19.102-42.667-42.667-42.667h-298.667c-23.564 0-42.667 19.102-42.667 42.667v298.667zM170.667 789.333v-213.333h213.333v213.333h-213.333zM655.053 907.992c11.78 20.407 37.875 27.399 58.283 15.617l258.654-149.334c20.407-11.782 27.401-37.876 15.616-58.284l-149.333-258.653c-11.78-20.407-37.875-27.401-58.283-15.616l-258.654 149.332c-20.407 11.782-27.401 37.876-15.616 58.284l149.333 258.653zM707.618 828.375l-106.667-184.752 184.755-106.667 106.667 184.752-184.755 106.667zM554.667 362.667c0 23.565 19.102 42.667 42.667 42.667h298.667c23.565 0 42.667-19.102 42.667-42.667v-298.667c0-23.565-19.102-42.667-42.667-42.667h-298.667c-23.565 0-42.667 19.102-42.667 42.667v298.667zM640 320v-213.333h213.333v213.333h-213.333zM85.333 362.667c0 23.565 19.103 42.667 42.667 42.667h298.667c23.565 0 42.667-19.102 42.667-42.667v-298.667c0-23.565-19.102-42.667-42.667-42.667h-298.667c-23.564 0-42.667 19.102-42.667 42.667v298.667zM170.667 320v-213.333h213.333v213.333h-213.333z" />
<glyph unicode="&#xe90e;" glyph-name="help-circle" d="M512 832c-212.077 0-384-171.923-384-384 0-212.079 171.923-384 384-384 212.079 0 384 171.921 384 384 0 212.077-171.921 384-384 384zM42.667 448c0 259.206 210.128 469.333 469.333 469.333 259.204 0 469.333-210.128 469.333-469.333 0-259.204-210.129-469.333-469.333-469.333-259.206 0-469.333 210.129-469.333 469.333zM523.012 617.629c-19.861 3.407-40.29-0.326-57.664-10.537s-30.571-26.241-37.261-45.251c-7.818-22.229-32.177-33.91-54.406-26.090s-33.91 32.178-26.090 54.407c13.375 38.021 39.774 70.081 74.522 90.503 34.749 20.422 75.602 27.887 115.325 21.073 39.727-6.813 75.759-27.467 101.713-58.301 25.95-30.828 40.158-69.843 40.102-110.138-0.013-45.662-24.026-80.559-48.849-104.341-24.832-23.791-54.272-40.299-75.059-50.257-1.66-0.794-2.867-1.933-3.537-2.914-0.311-0.457-0.448-0.798-0.508-0.973-0.047-0.154-0.047-0.218-0.047-0.226v-11.917c0-23.565-19.102-42.667-42.667-42.667s-42.667 19.102-42.667 42.667v11.913c0 37.116 23.407 67.11 52.557 81.075 16.917 8.102 37.312 19.985 52.894 34.914 15.582 14.933 22.549 29.069 22.549 42.765v0.064c0.030 20.152-7.074 39.665-20.049 55.082-12.979 15.417-30.997 25.743-50.859 29.15zM554.667 234.667c0-23.565-19.102-42.667-42.667-42.667s-42.667 19.102-42.667 42.667c0 23.565 19.102 42.667 42.667 42.667s42.667-19.102 42.667-42.667z" />
<glyph unicode="&#xe90f;" glyph-name="log-in" d="M597.333 832c0 23.564 19.102 42.667 42.667 42.667h170.667c33.946 0 66.505-13.486 90.509-37.49s37.491-56.562 37.491-90.51v-597.333c0-33.95-13.487-66.505-37.491-90.509s-56.563-37.491-90.509-37.491h-170.667c-23.565 0-42.667 19.102-42.667 42.667s19.102 42.667 42.667 42.667h170.667c11.315 0 22.17 4.497 30.17 12.497s12.497 18.854 12.497 30.17v597.333c0 11.316-4.497 22.168-12.497 30.17s-18.854 12.497-30.17 12.497h-170.667c-23.565 0-42.667 19.103-42.667 42.667zM396.497 691.503c16.663 16.662 43.678 16.662 60.34 0l213.333-213.334c16.661-16.661 16.661-43.678 0-60.339l-213.333-213.333c-16.661-16.661-43.677-16.661-60.34 0s-16.662 43.678 0 60.339l183.164 183.164-183.164 183.163c-16.662 16.663-16.662 43.677 0 60.34zM85.333 448c0 23.565 19.103 42.667 42.667 42.667h512c23.565 0 42.667-19.102 42.667-42.667s-19.102-42.667-42.667-42.667h-512c-23.564 0-42.667 19.102-42.667 42.667z" />
<glyph unicode="&#xe910;" glyph-name="minus-circle" d="M512 832c-212.077 0-384-171.923-384-384 0-212.079 171.923-384 384-384 212.079 0 384 171.921 384 384 0 212.077-171.921 384-384 384zM42.667 448c0 259.206 210.128 469.333 469.333 469.333 259.204 0 469.333-210.128 469.333-469.333 0-259.204-210.129-469.333-469.333-469.333-259.206 0-469.333 210.129-469.333 469.333zM298.667 448c0 23.565 19.103 42.667 42.667 42.667h341.333c23.565 0 42.667-19.102 42.667-42.667s-19.102-42.667-42.667-42.667h-341.333c-23.564 0-42.667 19.102-42.667 42.667z" />
<glyph unicode="&#xe911;" glyph-name="plus-circle" d="M512 832c-212.077 0-384-171.923-384-384 0-212.079 171.923-384 384-384 212.079 0 384 171.921 384 384 0 212.077-171.921 384-384 384zM42.667 448c0 259.206 210.128 469.333 469.333 469.333 259.204 0 469.333-210.128 469.333-469.333 0-259.204-210.129-469.333-469.333-469.333-259.206 0-469.333 210.129-469.333 469.333zM512 661.333c23.565 0 42.667-19.103 42.667-42.667v-341.333c0-23.565-19.102-42.667-42.667-42.667s-42.667 19.102-42.667 42.667v341.333c0 23.564 19.102 42.667 42.667 42.667zM298.667 448c0 23.565 19.103 42.667 42.667 42.667h341.333c23.565 0 42.667-19.102 42.667-42.667s-19.102-42.667-42.667-42.667h-341.333c-23.564 0-42.667 19.102-42.667 42.667z" />
<glyph unicode="&#xe912;" glyph-name="plus-circle-1" d="M512 832c-212.077 0-384-171.923-384-384 0-212.079 171.923-384 384-384 212.079 0 384 171.921 384 384 0 212.077-171.921 384-384 384zM42.667 448c0 259.206 210.128 469.333 469.333 469.333 259.204 0 469.333-210.128 469.333-469.333 0-259.204-210.129-469.333-469.333-469.333-259.206 0-469.333 210.129-469.333 469.333zM512 661.333c23.565 0 42.667-19.103 42.667-42.667v-341.333c0-23.565-19.102-42.667-42.667-42.667s-42.667 19.102-42.667 42.667v341.333c0 23.564 19.102 42.667 42.667 42.667zM298.667 448c0 23.565 19.103 42.667 42.667 42.667h341.333c23.565 0 42.667-19.102 42.667-42.667s-19.102-42.667-42.667-42.667h-341.333c-23.564 0-42.667 19.102-42.667 42.667z" />
<glyph unicode="&#xe913;" glyph-name="plus-circle-2" d="M512 832c-212.077 0-384-171.923-384-384 0-212.079 171.923-384 384-384 212.079 0 384 171.921 384 384 0 212.077-171.921 384-384 384zM42.667 448c0 259.206 210.128 469.333 469.333 469.333 259.204 0 469.333-210.128 469.333-469.333 0-259.204-210.129-469.333-469.333-469.333-259.206 0-469.333 210.129-469.333 469.333z" />
<glyph unicode="&#xe914;" glyph-name="refresh-cw" d="M981.333 832c23.565 0 42.667-19.103 42.667-42.667v-256c0-23.565-19.102-42.667-42.667-42.667h-256c-23.565 0-42.667 19.102-42.667 42.667s19.102 42.667 42.667 42.667h213.333v213.333c0 23.564 19.102 42.667 42.667 42.667zM0 362.667c0 23.565 19.103 42.667 42.667 42.667h256c23.564 0 42.667-19.102 42.667-42.667s-19.102-42.667-42.667-42.667h-213.333v-213.333c0-23.565-19.102-42.667-42.667-42.667s-42.667 19.102-42.667 42.667v256zM606.605 775.892c-55.386 16.021-113.933 17.75-170.167 5.026-56.239-12.724-108.336-39.488-151.433-77.792s-75.788-86.902-95.022-141.258c-7.861-22.214-32.242-33.85-54.456-25.989s-33.85 32.241-25.989 54.456c24.044 67.945 64.907 128.692 118.778 176.573s118.993 81.335 189.289 97.24c70.297 15.906 143.475 13.744 212.714-6.282 69.013-19.962 131.866-57.029 182.733-107.756l197.5-185.581c17.173-16.136 18.010-43.137 1.877-60.31-16.137-17.173-43.14-18.014-60.314-1.877l-197.973 186.027c-0.324 0.305-0.644 0.616-0.96 0.931-40.759 40.781-91.187 70.572-146.577 86.593zM11.573 391.983c16.136 17.173 43.138 18.014 60.311 1.877l197.973-186.027c0.325-0.303 0.645-0.614 0.96-0.93 40.761-40.781 91.188-70.571 146.576-86.592 55.387-16.021 113.934-17.754 170.169-5.026 56.239 12.723 108.335 39.488 151.433 77.79 43.098 38.306 75.789 86.903 95.023 141.261 7.859 22.212 32.243 33.847 54.455 25.988 22.212-7.863 33.852-32.243 25.988-54.455-24.043-67.947-64.905-128.691-118.775-176.576-53.871-47.881-118.993-81.331-189.291-97.237s-143.475-13.747-212.713 6.281c-69.015 19.964-131.869 57.028-182.735 107.759l-197.499 185.579c-17.172 16.137-18.013 43.14-1.876 60.309z" />
<glyph unicode="&#xe915;" glyph-name="search" d="M469.333 789.333c-164.949 0-298.667-133.718-298.667-298.667s133.718-298.667 298.667-298.667c164.949 0 298.667 133.717 298.667 298.667s-133.717 298.667-298.667 298.667zM85.333 490.667c0 212.077 171.923 384 384 384 212.079 0 384-171.923 384-384 0-212.079-171.921-384-384-384-212.077 0-384 171.921-384 384zM680.226 279.77c16.661 16.661 43.678 16.661 60.339 0l185.6-185.6c16.661-16.661 16.661-43.678 0-60.339-16.661-16.666-43.678-16.666-60.339 0l-185.6 185.6c-16.661 16.661-16.661 43.678 0 60.339z" />
<glyph unicode="&#xe916;" glyph-name="shield" d="M497.020 914.617c9.66 3.622 20.301 3.622 29.961 0l341.333-128c16.653-6.245 27.686-22.165 27.686-39.95v-298.667c0-147.046-97.353-264.546-185.237-341.444-44.838-39.232-89.472-69.897-122.816-90.735-16.717-10.449-30.707-18.496-40.614-23.983-4.958-2.743-8.905-4.851-11.665-6.302-1.382-0.725-2.47-1.289-3.238-1.681l-0.917-0.469-0.277-0.137-0.094-0.047c-0.013-0.009-0.060-0.030-19.14 38.131-19.081-38.161-19.093-38.157-19.106-38.148l-0.128 0.064-0.277 0.137-0.917 0.469c-0.768 0.393-1.856 0.956-3.238 1.681-2.761 1.451-6.707 3.558-11.665 6.302-9.907 5.487-23.898 13.534-40.614 23.983-33.342 20.838-77.978 51.503-122.816 90.735-87.883 76.898-185.237 194.398-185.237 341.444v298.667c0 17.785 11.032 33.705 27.686 39.95l341.334 128zM512 21.333l-19.106-38.148c12.011-6.007 26.176-6.020 38.187-0.013l-19.081 38.161zM512 69.854c8.175 4.638 18.633 10.773 30.72 18.325 30.656 19.162 71.356 47.164 111.851 82.598 82.782 72.435 156.096 168.269 156.096 277.222v269.099l-298.667 112-298.667-112v-269.099c0-108.954 73.312-204.787 156.096-277.222 40.496-35.435 81.195-63.437 111.851-82.598 12.087-7.552 22.545-13.687 30.72-18.325z" />
<glyph unicode="&#xe917;" glyph-name="smartphone" d="M725.333-21.333h-426.667c-72.533 0-128 55.467-128 128v682.667c0 72.533 55.467 128 128 128h426.667c72.533 0 128-55.467 128-128v-682.667c0-72.533-55.467-128-128-128zM298.667 832c-25.6 0-42.667-17.067-42.667-42.667v-682.667c0-25.6 17.067-42.667 42.667-42.667h426.667c25.6 0 42.667 17.067 42.667 42.667v682.667c0 25.6-17.067 42.667-42.667 42.667h-426.667zM512 149.333c-4.267 0-12.8 0-17.067 4.267-4.267 0-8.533 4.267-12.8 8.533-8.533 8.533-12.8 17.067-12.8 29.867 0 4.267 0 12.8 4.267 17.067s4.267 8.533 8.533 12.8c17.067 17.067 42.667 17.067 59.733 0 8.533-8.533 12.8-21.333 12.8-29.867 0-12.8-4.267-21.333-12.8-29.867s-17.067-12.8-29.867-12.8z" />
<glyph unicode="&#xe918;" glyph-name="toggle-right" d="M682.667 192c141.385 0 256 114.615 256 256s-114.615 256-256 256h-341.333c-141.385 0-256-114.615-256-256s114.615-256 256-256h341.333zM1024 448c0-188.514-152.819-341.333-341.333-341.333h-341.333c-188.513 0-341.333 152.819-341.333 341.333s152.82 341.333 341.333 341.333h341.333c188.514 0 341.333-152.82 341.333-341.333zM341.333 362.667c47.128 0 85.333 38.204 85.333 85.333s-38.205 85.333-85.333 85.333c-47.128 0-85.333-38.204-85.333-85.333s38.205-85.333 85.333-85.333zM512 448c0-94.255-76.412-170.667-170.667-170.667-94.257 0-170.667 76.412-170.667 170.667 0 94.257 76.41 170.667 170.667 170.667 94.255 0 170.667-76.41 170.667-170.667z" />
<glyph unicode="&#xe919;" glyph-name="toggle-right-1" d="M341.333 704c-141.385 0-256-114.615-256-256s114.615-256 256-256h341.333c141.385 0 256 114.615 256 256s-114.615 256-256 256h-341.333zM0 448c0 188.513 152.82 341.333 341.333 341.333h341.333c188.514 0 341.333-152.82 341.333-341.333s-152.819-341.333-341.333-341.333h-341.333c-188.513 0-341.333 152.819-341.333 341.333zM682.667 533.333c-47.13 0-85.333-38.204-85.333-85.333s38.204-85.333 85.333-85.333c47.13 0 85.333 38.204 85.333 85.333s-38.204 85.333-85.333 85.333zM512 448c0 94.257 76.412 170.667 170.667 170.667s170.667-76.41 170.667-170.667c0-94.255-76.412-170.667-170.667-170.667s-170.667 76.412-170.667 170.667z" />
<glyph unicode="&#xe91a;" glyph-name="trash-2" d="M85.333 704c0 23.564 19.103 42.667 42.667 42.667h768c23.565 0 42.667-19.103 42.667-42.667s-19.102-42.667-42.667-42.667h-768c-23.564 0-42.667 19.103-42.667 42.667zM426.667 832c-11.316 0-22.168-4.495-30.17-12.497s-12.497-18.854-12.497-30.17v-42.667h256v42.667c0 11.316-4.497 22.168-12.497 30.17s-18.854 12.497-30.17 12.497h-170.667zM725.333 746.667h85.333c23.565 0 42.667-19.103 42.667-42.667v-597.333c0-33.95-13.487-66.505-37.491-90.509s-56.559-37.491-90.509-37.491h-426.667c-33.948 0-66.505 13.487-90.51 37.491s-37.49 56.559-37.49 90.509v597.333c0 23.564 19.103 42.667 42.667 42.667h85.333v42.667c0 33.948 13.486 66.505 37.49 90.51s56.562 37.49 90.51 37.49h170.667c33.946 0 66.505-13.486 90.509-37.49s37.491-56.562 37.491-90.51v-42.667zM256 661.333v-554.667c0-11.315 4.495-22.17 12.497-30.17s18.854-12.497 30.17-12.497h426.667c11.315 0 22.17 4.497 30.17 12.497s12.497 18.854 12.497 30.17v554.667h-512zM426.667 533.333c23.565 0 42.667-19.102 42.667-42.667v-256c0-23.565-19.102-42.667-42.667-42.667s-42.667 19.102-42.667 42.667v256c0 23.565 19.103 42.667 42.667 42.667zM597.333 533.333c23.565 0 42.667-19.102 42.667-42.667v-256c0-23.565-19.102-42.667-42.667-42.667s-42.667 19.102-42.667 42.667v256c0 23.565 19.102 42.667 42.667 42.667z" />
<glyph unicode="&#xe91b;" glyph-name="upload-cloud" d="M512 490.667c23.561 0 42.667-19.102 42.667-42.667v-384c0-23.565-19.106-42.667-42.667-42.667-23.565 0-42.667 19.102-42.667 42.667v384c0 23.565 19.102 42.667 42.667 42.667zM369.632 874.302c58.003 2.137 115.739-8.903 168.864-32.291s100.254-58.514 137.847-102.738c30.357-35.709 53.858-76.599 69.427-120.605h22.229c56.875-0.038 112.145-19.015 157.039-53.937s76.881-83.801 90.91-138.918c14.029-55.121 9.301-113.34-13.431-165.474-22.737-52.134-62.187-95.215-112.124-122.441-20.689-11.277-46.605-3.648-57.882 17.041-11.281 20.689-3.652 46.605 17.037 57.882 33.293 18.15 59.593 46.869 74.748 81.626s18.308 73.57 8.956 110.319c-9.353 36.745-30.677 69.329-60.608 92.612-29.926 23.279-66.756 35.93-104.674 35.956h-53.73c-19.452 0-36.442 13.155-41.31 31.987-11.302 43.708-32.363 84.286-61.602 118.683s-65.899 61.717-107.217 79.908c-41.318 18.19-86.222 26.777-131.337 25.115s-89.266-13.53-129.134-34.712c-39.868-21.181-74.415-51.126-101.044-87.581s-44.648-78.473-52.701-122.894c-8.053-44.422-5.931-90.092 6.206-133.574s33.974-83.648 63.869-117.478c15.604-17.655 13.94-44.621-3.718-60.224s-44.621-13.939-60.225 3.716c-38.437 43.494-66.513 95.138-82.118 151.044s-18.333 114.624-7.979 171.738c10.354 57.113 33.521 111.136 67.759 158.007s78.656 85.37 129.914 112.604c51.259 27.234 108.024 42.493 166.029 44.63zM481.83 478.17c16.661 16.661 43.674 16.661 60.339 0l170.667-170.667c16.661-16.661 16.661-43.678 0-60.339-16.666-16.661-43.678-16.661-60.339 0l-140.497 140.497-140.498-140.497c-16.663-16.661-43.677-16.661-60.34 0s-16.662 43.678 0 60.339l170.669 170.667z" />
<glyph unicode="&#xe91c;" glyph-name="user" d="M190.484 300.181c40.008 40.009 94.27 62.485 150.849 62.485h341.333c56.58 0 110.844-22.477 150.848-62.485 40.009-40.004 62.485-94.268 62.485-150.848v-85.333c0-23.565-19.102-42.667-42.667-42.667s-42.667 19.102-42.667 42.667v85.333c0 33.946-13.487 66.505-37.491 90.509s-56.563 37.491-90.509 37.491h-341.333c-33.948 0-66.505-13.487-90.51-37.491s-37.49-56.563-37.49-90.509v-85.333c0-23.565-19.103-42.667-42.667-42.667s-42.667 19.102-42.667 42.667v85.333c0 56.58 22.476 110.844 62.484 150.848zM512 789.333c-70.694 0-128-57.308-128-128s57.306-128 128-128c70.694 0 128 57.308 128 128s-57.306 128-128 128zM298.667 661.333c0 117.821 95.513 213.333 213.333 213.333s213.333-95.513 213.333-213.333c0-117.821-95.514-213.333-213.333-213.333s-213.333 95.513-213.333 213.333z" />
<glyph unicode="&#xe91d;" glyph-name="users" d="M62.484 300.181c40.008 40.009 94.27 62.485 150.849 62.485h341.333c56.58 0 110.844-22.477 150.848-62.485 40.009-40.004 62.485-94.268 62.485-150.848v-85.333c0-23.565-19.102-42.667-42.667-42.667s-42.667 19.102-42.667 42.667v85.333c0 33.946-13.487 66.505-37.491 90.509s-56.563 37.491-90.509 37.491h-341.333c-33.948 0-66.505-13.487-90.51-37.491s-37.49-56.563-37.49-90.509v-85.333c0-23.565-19.103-42.667-42.667-42.667s-42.667 19.102-42.667 42.667v85.333c0 56.58 22.476 110.844 62.484 150.848zM384 789.333c-70.692 0-128-57.308-128-128s57.308-128 128-128c70.694 0 128 57.308 128 128s-57.306 128-128 128zM170.667 661.333c0 117.821 95.513 213.333 213.333 213.333s213.333-95.513 213.333-213.333c0-117.821-95.514-213.333-213.333-213.333s-213.333 95.513-213.333 213.333zM812.023 325.12c5.888 22.814 29.163 36.535 51.977 30.643 45.769-11.814 86.315-38.498 115.273-75.857 28.958-37.355 44.693-83.273 44.727-130.543v-85.363c0-23.565-19.102-42.667-42.667-42.667s-42.667 19.102-42.667 42.667v85.303c0 0.004 0-0.004 0 0-0.026 28.356-9.463 55.915-26.837 78.323-17.374 22.417-41.702 38.426-69.163 45.517-22.814 5.888-36.535 29.158-30.643 51.977zM641.331 837.036c5.845 22.828 29.090 36.595 51.917 30.75 45.892-11.75 86.562-38.438 115.61-75.857 29.043-37.419 44.809-83.441 44.809-130.81s-15.765-93.391-44.809-130.812c-29.047-37.419-69.717-64.107-115.61-75.857-22.827-5.841-46.071 7.923-51.917 30.754-5.841 22.827 7.923 46.071 30.754 51.915 27.533 7.049 51.934 23.062 69.363 45.514 17.425 22.452 26.884 50.065 26.884 78.486s-9.459 56.035-26.884 78.486c-17.429 22.451-41.83 38.464-69.363 45.514-22.831 5.845-36.595 29.088-30.754 51.916z" />
<glyph unicode="&#xe91e;" glyph-name="watch" d="M608 292.267c8.533-8.533 21.333-12.8 29.867-12.8s21.333 4.267 29.867 12.8c17.067 17.067 17.067 42.667 0 59.733l-70.4 70.4v185.558c0 25.6-17.067 42.667-42.667 42.667s-42.667-17.067-42.667-42.667v-202.625c0-12.8 4.267-21.333 12.8-29.867l83.2-83.2zM544 0c-229.751 0-416 186.249-416 416s186.249 416 416 416c229.751 0 416-186.249 416-416s-186.249-416-416-416zM544 96c176.73 0 320 143.27 320 320s-143.27 320-320 320c-176.731 0-320-143.269-320-320s143.269-320 320-320z" />
<glyph unicode="&#xe91f;" glyph-name="x" d="M798.17 734.17c16.661-16.663 16.661-43.677 0-60.34l-512-512c-16.663-16.661-43.677-16.661-60.34 0s-16.662 43.678 0 60.339l512 512c16.661 16.662 43.678 16.662 60.339 0zM225.83 734.17c16.663 16.662 43.677 16.662 60.34 0l512-512c16.661-16.661 16.661-43.678 0-60.339s-43.678-16.661-60.339 0l-512 512c-16.662 16.663-16.662 43.677 0 60.34z" />
<glyph unicode="&#xe920;" glyph-name="home" d="M1024 369.556l-512 397.426-512-397.428v162.038l512 397.426 512-397.428zM896 384v-384h-256v256h-256v-256h-256v384l384 288z" />
</font>
</defs>
</svg>
